<svg width="467" height="445" viewBox="0 0 467 445" fill="none" xmlns="http://www.w3.org/2000/svg">
<rect x="34" width="398" height="445" rx="49" fill="#5889F5"/>
<path d="M87.9531 322L66.1562 122.312H99.9062L113.969 293.172H117.484L133.797 172.938H164.734L153.906 207.109H148.281L135.625 322H87.9531ZM162.625 322L149.969 207.109H144.344L133.797 172.938H164.734L180.766 293.172H184.281L198.344 122.312H232.094L210.297 322H162.625ZM310.984 324.812C299.641 324.812 288.766 323.875 278.359 322C268.047 320.125 258.672 317.406 250.234 313.844L254.734 279.672C265.047 284.078 275.172 287.453 285.109 289.797C295.047 292.047 304.422 293.172 313.234 293.172C324.484 293.172 332.969 291.203 338.688 287.266C344.5 283.234 347.406 277.375 347.406 269.688C347.406 259.656 341.688 252.016 330.25 246.766L299.172 232C285.203 225.438 274.422 217.328 266.828 207.672C259.328 198.016 255.578 186.906 255.578 174.344C255.578 156.906 261.109 143.406 272.172 133.844C283.328 124.281 299.078 119.5 319.422 119.5C332.172 119.5 343.891 121.609 354.578 125.828C365.359 129.953 375.203 136.234 384.109 144.672L360.906 170.266C353.688 163.891 346.656 159.109 339.812 155.922C333.062 152.641 326.312 151 319.562 151C310.75 151 303.906 153.016 299.031 157.047C294.156 160.984 291.719 166.75 291.719 174.344C291.719 179.594 293.359 184.234 296.641 188.266C300.016 192.203 304.844 195.766 311.125 198.953L339.109 212.875C353.453 220 364.422 228.25 372.016 237.625C379.703 246.906 383.547 257.641 383.547 269.828C383.547 287.734 377.359 301.375 364.984 310.75C352.703 320.125 334.703 324.812 310.984 324.812Z" fill="white"/>
</svg>
